PathFileType	4	(X/Y/Z)	walk-thru1-4-TP.trc
DataRate	CameraRate	NumFrames	NumMarkers	Units	OrigDataRate	OrigDataStartFrame	OrigNumFrames
120.00	120.00	       5	60	mm	120.00	318	       508
Frame#	Time	Top.Head			Front.Head			Rear.Head			Jaw			C7			R.Clavicle			L.Clavicle			R.Shoulder			L.Shoulder			R.Scapula			L.Scapula			R.Scap.Inf			R.Biceps.Lateral			R.Elbow			R.Elbow.Medial			R.Forearm			R.Ulna			R.Radius			R.Wrist			R.Thumb.M1			R.Thumb.M2			R.Thumb.M3			R.Finger3.M1			R.Finger3.M2			R.Finger3.M3			L.Biceps.Lateral			L.Elbow			L.Elbow.Medial			L.Forearm			L.Ulna			L.Radius			L.Wrist			L.Thumb.M1			L.Thumb.M2			L.Thumb.M3			L.Finger3.M1			L.Finger3.M2			L.Finger3.M3			V.Sacral			R.ASIS			L.ASIS			R.Thigh			R.Thigh.Front			R.Knee			R.Knee.Medial			R.Shank			R.Ankle			R.Ankle.Medial			R.Heel			R.Toe			R.MedFoot			L.Thigh			L.Knee			L.Knee.Medial			L.Shank			L.Ankle			L.Ankle.Medial			L.Heel			L.Toe			L.MedFoot			V_mid_ASIS			V_R_Knee_JC			V_L_Knee_JC			V_R_Elbow_JC			V_L_Elbow_JC			V_R_Ankle_JC			V_L_Ankle_JC			V_R_Wrist_JC			V_L_Wrist_JC			V_R_ScaTrpz_1stMC_JC			V_R_1stMC_1stPP_JC			V_R_1stPP_1stDP_JC			V_R_LunCap_3rdMC_JC			V_R_3rdMC_3rdPP_JC			V_R_3rdPP_3rdMP_JC			V_R_3rdMP_3rdDP_JC			V_L_ScaTrpz_1stMC_JC			V_L_1stMC_1stPP_JC			V_L_1stPP_1stDP_JC			V_L_LunCap_3rdMC_JC			V_L_3rdMC_3rdPP_JC			V_L_3rdPP_3rdMP_JC			V_L_3rdMP_3rdPP_JC			V_ROOT_JC			V_R_Hip_JC			V_L_Hip_JC			V_R_GlenHum_JC			V_L_GlenHum_JC			V_ForeHead_Ctr			V_Vertex			V_Sagit_Lambdoid_Suture			V_R_FrontoTemp			V_L_FrontoTemporal			V_R_ParietalOccip			V_L_ParietalOcciptal			V_R_Temporal			V_L_Temporal			V_mid_FrontRearHead			V_mid_RLGlenHumCtrs			V_C7_vert			V_C1_vert			V_Mid_Hip			
		X1	Y1	Z1	X2	Y2	Z2	X3	Y3	Z3	X4	Y4	Z4	X5	Y5	Z5	X6	Y6	Z6	X7	Y7	Z7	X8	Y8	Z8	X9	Y9	Z9	X10	Y10	Z10	X11	Y11	Z11	X12	Y12	Z12	X13	Y13	Z13	X14	Y14	Z14	X15	Y15	Z15	X16	Y16	Z16	X17	Y17	Z17	X18	Y18	Z18	X19	Y19	Z19	X20	Y20	Z20	X21	Y21	Z21	X22	Y22	Z22	X23	Y23	Z23	X24	Y24	Z24	X25	Y25	Z25	X26	Y26	Z26	X27	Y27	Z27	X28	Y28	Z28	X29	Y29	Z29	X30	Y30	Z30	X31	Y31	Z31	X32	Y32	Z32	X33	Y33	Z33	X34	Y34	Z34	X35	Y35	Z35	X36	Y36	Z36	X37	Y37	Z37	X38	Y38	Z38	X39	Y39	Z39	X40	Y40	Z40	X41	Y41	Z41	X42	Y42	Z42	X43	Y43	Z43	X44	Y44	Z44	X45	Y45	Z45	X46	Y46	Z46	X47	Y47	Z47	X48	Y48	Z48	X49	Y49	Z49	X50	Y50	Z50	X51	Y51	Z51	X52	Y52	Z52	X53	Y53	Z53	X54	Y54	Z54	X55	Y55	Z55	X56	Y56	Z56	X57	Y57	Z57	X58	Y58	Z58	X59	Y59	Z59	X60	Y60	Z60	

318	2.642	566.93970	161.32297	1772.50110	664.29688	132.19722	1654.43225	435.27798	174.25261	1698.90686	576.88123	136.45056	1477.98755	342.48801	160.69969	1572.84192	433.91821	31.55578	1500.30103	456.12103	272.53778	1474.88318	374.20096	-71.97963	1496.82629	419.33038	379.52039	1470.61865	272.36703	64.44639	1488.87244	280.59659	255.87361	1471.69336	240.69756	58.72418	1398.85168	326.43042	-108.02895	1362.66797	250.63345	-137.97035	1183.98157	262.06729	-41.60780	1171.12537	339.43628	-146.59062	1112.54688	271.33914	-149.94751	981.41486	380.58997	-149.09358	943.46454	379.09290	-193.66164	912.63751	399.02689	-142.59338	902.48120	403.42126	-109.47058	861.31805	403.93030	-100.63831	811.10266	389.65646	-196.97549	827.09265	357.29727	-138.94948	781.38025	335.67139	-94.13381	822.27246	372.13193	413.20187	1324.84302	324.31787	435.58786	1152.52307	306.65363	344.15073	1123.43066	417.44989	430.53897	1085.27332	378.60315	458.17188	972.39453	482.56204	434.46350	935.51300	467.19992	477.11557	899.51355	516.67023	437.26636	887.81812	544.53534	412.14227	847.27734	563.08807	415.93469	799.74280	512.90948	491.69708	808.57410	526.62457	460.89639	751.87933	520.17474	402.16409	750.76910	224.25862	139.84813	1122.61243	411.45435	-59.17677	1068.55579	418.68988	292.91183	1061.50085	467.38107	-68.26281	703.49329	570.39734	9.17829	614.23132	525.95471	-49.03285	551.43646	529.32397	70.00626	543.01282	536.03662	-14.24621	332.12857	439.38831	-44.00382	106.21643	468.59354	57.10426	125.27547	385.30115	13.31054	66.70715	603.85858	-15.93888	65.36091	558.25348	17.90633	100.46796	370.34064	281.22668	671.69495	365.46411	251.48108	528.54938	358.07663	141.04843	513.54993	353.37259	198.92365	320.54474	237.54439	192.06331	79.00195	290.23090	105.34682	114.44331	201.43353	117.39290	49.70884	419.99475	185.57747	46.03263	358.23221	145.02136	90.62499																																																																																																																															
319	2.650	571.85547	160.96838	1772.08362	669.48602	132.59700	1653.38135	440.49915	172.97592	1698.37598	582.26202	136.25362	1477.79761	347.46384	160.66397	1571.46362	439.40512	30.75532	1499.40479	460.74033	273.28467	1474.74744	378.73715	-71.87431	1496.40588	423.40857	379.08560	1469.83960	277.53046	63.68479	1488.60535	285.00009	256.84869	1471.17822	246.03282	59.00257	1398.68567	330.88547	-107.91297	1361.14624	254.55490	-137.11737	1184.00012	266.13943	-41.49951	1171.52393	343.89377	-145.24255	1111.15332	273.91367	-148.30647	979.92389	385.47009	-149.06160	942.81812	380.72394	-193.86134	911.77753	402.79742	-143.37408	901.00525	409.18326	-111.94903	858.98633	409.62051	-103.61591	807.46484	394.22098	-198.13783	827.34088	361.86942	-138.69165	780.09448	342.45834	-94.58633	820.37811	376.73776	412.99472	1324.00745	329.21939	434.72095	1152.19312	311.70074	343.35544	1122.93799	423.05405	430.80035	1084.39856	384.30969	459.13184	971.57880	487.75311	435.82361	934.70251	473.05850	477.79099	899.10016	522.75781	436.30902	886.57843	550.36615	412.80960	846.46912	568.18036	415.84268	799.35284	516.82117	491.01132	807.51953	531.22668	461.85443	751.37115	525.24713	401.42068	750.29858	228.84569	139.28973	1122.47375	415.69196	-57.95373	1067.97180	425.06686	294.14359	1061.20740	472.17279	-68.16429	702.72333	574.04041	9.04738	614.14117	530.41388	-48.08176	551.40424	533.00513	69.36349	544.26068	547.76013	-12.26284	333.15189	457.14252	-42.12754	103.04054	486.16083	58.38648	123.91467	403.85339	13.46098	63.29714	623.22168	-14.00245	67.64126	575.50989	19.87004	101.26395	373.58273	279.66965	670.93188	368.24368	252.10059	528.14423	361.72198	141.21574	513.19281	355.23291	198.33165	320.48312	237.69565	191.73778	78.78735	290.77704	104.92481	114.16776	201.51801	117.02649	49.91665	420.00043	185.60869	45.89750	358.20239	144.91693	90.26235																																																																																																																															
320	2.658	576.80505	161.52556	1772.60339	674.52051	132.96133	1652.85999	445.65839	174.08081	1696.67773	586.81824	137.14560	1477.17944	353.44034	157.91615	1572.35059	445.21631	30.67213	1498.66992	465.32101	273.51987	1474.17664	384.52267	-71.71503	1494.75513	428.81250	379.15204	1469.73047	283.16101	63.39888	1487.88538	290.12378	256.20380	1470.62134	251.44467	58.53960	1397.97827	335.46530	-107.49067	1360.65906	259.35474	-136.77698	1182.78198	272.88757	-40.27209	1169.93567	348.28448	-144.33986	1109.92822	278.31656	-147.18216	979.04767	389.19348	-147.93709	942.18921	385.10199	-193.35356	911.63208	406.61154	-142.86491	899.68829	415.81644	-112.98035	857.31885	416.84494	-107.48994	805.05347	398.69800	-199.37178	827.16321	368.93707	-142.83556	778.52142	347.96234	-96.56092	817.12970	382.29117	412.72528	1323.89819	334.20428	435.69904	1152.12646	317.44623	343.70639	1121.69421	428.73679	430.69824	1084.01050	388.98367	459.06137	971.81158	492.61484	435.14197	934.20044	479.34131	478.90219	898.26965	527.26849	437.23248	886.34259	554.23132	413.75403	844.27106	572.77960	417.29703	798.27356	522.84857	492.66287	808.48187	536.28790	462.32962	749.96307	529.90405	402.05200	749.83569	233.25275	139.69992	1121.96851	421.47476	-58.76242	1066.90393	428.16138	293.11456	1060.56116	475.88672	-67.73304	702.11780	578.03949	10.36148	613.83533	535.41193	-47.24476	550.92877	538.13110	71.20067	542.17517	558.55627	-11.77032	333.47614	475.03378	-41.16503	101.49076	503.26306	58.86380	122.55585	422.81293	13.25847	59.34450	641.51184	-12.14961	69.72045	593.12604	21.60005	102.56885	376.53815	281.42041	670.04761	370.34735	251.16777	527.16803	363.78189	141.78830	511.92542	356.24246	198.00732	320.45178	237.75609	191.34023	78.92445	291.06067	104.62148	114.17758	201.60370	117.12280	49.94542	420.10294	185.52483	45.75100	358.83597	145.48065	89.89019																																																																																																																															
321	2.667	582.65881	161.53438	1771.56262	680.16516	132.54727	1652.52258	450.69064	172.60014	1696.58435	592.12006	136.14728	1476.97253	357.67191	158.27954	1570.17932	449.69446	29.70753	1498.09680	470.69156	273.73593	1473.51904	388.68118	-71.56749	1494.29614	433.27740	378.68866	1469.69495	287.66489	63.66300	1487.65833	295.44644	255.52344	1470.03101	256.44873	58.00591	1397.85083	340.77280	-106.99216	1359.00781	264.21960	-136.11896	1182.63171	273.95218	-40.20300	1169.86987	352.51303	-142.40956	1108.87988	281.75546	-146.47816	978.06781	393.60211	-146.61783	940.71191	388.46130	-192.61723	911.49127	412.29907	-143.89262	898.85889	420.19766	-114.48190	854.51086	423.04593	-111.93412	802.46783	403.58267	-201.81142	827.25018	373.81781	-146.45248	775.70319	353.74100	-99.18502	813.19073	388.41708	412.33575	1323.76440	340.07404	437.21286	1151.17139	323.56967	344.46359	1121.31091	434.29147	430.53690	1083.09302	393.99939	460.02533	971.50562	498.18726	435.75687	934.32147	483.56912	478.41641	897.96783	531.75720	436.62683	885.16608	559.83270	412.66083	843.13208	577.62494	416.99152	797.27612	527.88196	493.06277	807.70599	541.37225	462.38516	749.44647	534.58850	402.84137	748.06262	238.33252	139.82924	1121.60925	425.96072	-58.68937	1065.94641	433.07700	293.59610	1060.22083	480.07959	-67.70690	700.97351	581.38605	10.78217	613.47717	539.93634	-46.81958	550.44452	542.70477	70.27302	541.36499	569.20300	-10.69185	334.78510	492.93237	-40.40641	99.63161	519.39001	59.08815	121.54031	441.31805	14.93941	56.58234	660.08954	-9.62787	71.47626	610.84155	22.90287	103.26215	379.79205	280.27469	669.32568	372.60336	251.16510	526.32159	366.58246	141.83723	511.46609	358.00443	198.59438	319.59760	238.09674	190.95529	79.31282	290.88217	103.70763	113.96735	201.64622	117.18117	50.12793	420.21304	185.65176	45.63518	358.56476	144.82341	89.99408																																																																																																																															
322	2.675	586.37927	160.83627	1770.83887	685.08795	133.52496	1650.88647	455.77344	173.70010	1696.52820	597.42572	137.24200	1475.59924	363.90771	158.14005	1570.81812	454.93243	29.22045	1497.64709	475.51270	273.21472	1472.36768	394.46304	-72.55754	1493.70105	438.21780	378.76920	1469.00891	292.48041	62.21216	1487.15515	300.01254	255.21834	1469.33093	260.28589	56.93103	1397.19214	345.66656	-107.35455	1358.27734	267.95007	-135.74251	1181.23950	281.03384	-38.44627	1168.11121	356.26907	-142.84343	1107.84595	286.24731	-145.38918	977.09436	397.71390	-144.93550	939.91223	393.04175	-191.10257	911.20367	415.88171	-141.93242	896.00433	424.74359	-116.26290	851.22351	427.25055	-115.61730	798.39307	408.22495	-204.66788	828.62170	379.07071	-152.25627	774.12500	358.40173	-102.75198	808.05927	392.80371	412.06314	1323.54456	345.57251	435.15094	1150.48767	325.72089	345.21838	1121.05005	439.14529	430.45862	1082.65186	399.57443	460.72342	971.10883	503.28314	436.00464	932.45831	488.64093	478.92212	897.39069	536.79083	437.27969	884.26355	563.44391	412.80283	842.79675	581.78534	416.61530	796.26208	532.80267	492.86526	806.97382	546.04803	461.72238	749.33441	538.25928	402.91711	747.55817	242.74554	138.92342	1120.97217	430.64224	-58.25498	1064.99683	438.26013	292.88882	1059.38550	483.25055	-67.79282	700.32684	585.33459	12.19184	612.48456	544.83734	-45.73355	550.38293	547.22821	71.34003	540.78955	579.79565	-9.81251	335.41031	510.26730	-40.01996	99.01630	535.70770	61.13628	121.38534	459.49344	15.91450	54.85563	678.01031	-7.99620	74.35013	627.66815	24.55428	104.61440	384.09433	280.29840	668.62952	376.78125	250.92131	525.62946	369.33139	141.30597	511.21289	359.77945	198.09821	318.92947	238.22110	190.79558	79.23039	291.41718	104.08218	113.94756	201.91736	117.16166	50.19329	420.33170	185.49300	45.25378	358.91476	145.31308	89.81937																																																																																																																															
